<svg fill="#000000" xmlns="http://www.w3.org/2000/svg"  viewBox="0 0 50 50" width="50px" height="50px"><path d="M 25 3 C 18.151057 3 14.766397 6.416267 13.253906 9.4160156 C 11.737516 8.1018526 10.221017 6.5301504 8.8300781 4.4492188 C 8.5800781 4.0592188 8.0901562 3.9005469 7.6601562 4.0605469 C 7.2301563 4.2105469 6.96 4.6396094 7 5.0996094 C 7.01 5.1996094 8.0295313 15.259219 10.019531 25.199219 C 10.039531 25.279219 10.069375 25.369219 10.109375 25.449219 C 10.690424 26.614164 11.349599 27.67926 12 28.630859 L 12 33.638672 C 12 34.791148 12.497739 35.888879 13.365234 36.648438 L 13.365234 36.650391 L 14 37.205078 L 14 39.238281 C 14 39.943344 13.621381 40.589688 12.994141 40.972656 C 9.4016313 43.166285 6.2929687 46.292969 6.2929688 46.292969 A 1.0001 1.0001 0 0 0 7 48 L 43 48 A 1.0001 1.0001 0 0 0 43.707031 46.292969 C 43.707031 46.292969 40.598368 43.166285 37.005859 40.972656 C 36.378163 40.589409 36 39.944682 36 39.238281 L 36 37.205078 L 36.634766 36.650391 L 36.634766 36.648438 C 37.502261 35.888926 38 34.791148 38 33.638672 L 38 28.630859 C 38.650401 27.67926 39.309576 26.614164 39.890625 25.449219 C 39.930625 25.369219 39.960469 25.279219 39.980469 25.199219 C 41.970469 15.259219 42.99 5.1996094 43 5.0996094 C 43.04 4.6396094 42.769844 4.2105469 42.339844 4.0605469 C 41.909844 3.9005469 41.419922 4.0592188 41.169922 4.4492188 C 39.779623 6.5291934 38.26374 8.1002593 36.748047 9.4140625 C 35.228802 6.4161922 31.843568 3 25 3 z M 25 5 C 26.117611 5 27.105019 5.0984965 28 5.2617188 L 28 9 L 22 9 L 22 5.2617188 C 22.894505 5.0985961 23.882518 5 25 5 z M 20 5.796875 L 20 14.632812 C 19.075052 13.817705 18.031274 13.060706 16.939453 12.269531 C 16.26181 11.778824 15.560963 11.270748 14.849609 10.722656 C 15.618888 8.9279855 17.032271 6.8925578 20 5.796875 z M 30 5.7988281 C 32.969359 6.8946096 34.387815 8.9263923 35.152344 10.720703 C 34.440257 11.269427 33.73887 11.778332 33.060547 12.269531 C 31.968726 13.060706 30.924948 13.817705 30 14.632812 L 30 5.7988281 z M 22 11 L 28 11 L 28 16.625 C 26.555661 18.16181 25.596098 19.354209 25 20.169922 C 24.403902 19.354209 23.444339 18.16181 22 16.625 L 22 11 z M 15 21.019531 C 15 21.019531 17.329922 21 19.669922 22 C 21.999922 23 22 24.980469 22 24.980469 C 22 24.980469 19.670078 25 17.330078 24 C 15.000078 23 15 21.019531 15 21.019531 z M 35 21.019531 C 35 21.019531 34.999922 23 32.669922 24 C 30.329922 25 28 24.980469 28 24.980469 C 28 24.980469 28.000078 23 30.330078 22 C 32.670078 21 35 21.019531 35 21.019531 z M 25 27.199219 L 33.449219 32.830078 C 33.609219 32.950078 33.81 33 34 33 C 34.26 33 34.510938 32.900938 34.710938 32.710938 C 34.757512 32.660482 35.306583 32.068408 36 31.25 L 36 33.638672 C 36 34.216196 35.750911 34.764089 35.316406 35.144531 L 29.191406 40.505859 C 28.826248 40.824956 28.357956 41 27.873047 41 L 22.126953 41 C 21.643377 41 21.175236 40.823715 20.808594 40.503906 L 20.808594 40.505859 L 14.683594 35.144531 C 14.249089 34.764042 14 34.216196 14 33.638672 L 14 31.25 C 14.693417 32.068408 15.242488 32.660482 15.289062 32.710938 C 15.629062 33.040937 16.160781 33.100078 16.550781 32.830078 L 25 27.199219 z M 25 33 C 22.322222 33 20.470703 34.152344 20.470703 34.152344 A 1.0001 1.0001 0 1 0 21.529297 35.847656 C 21.529297 35.847656 22.877778 35 25 35 C 27.122222 35 28.470703 35.847656 28.470703 35.847656 A 1.0001 1.0001 0 1 0 29.529297 34.152344 C 29.529297 34.152344 27.677778 33 25 33 z M 16 38.955078 L 19.492188 42.011719 L 19.494141 42.011719 C 20.223452 42.647863 21.158529 43 22.126953 43 L 27.873047 43 C 28.842138 43 29.778971 42.648623 30.507812 42.011719 L 34 38.955078 L 34 39.238281 C 34 40.663881 34.772587 41.952935 35.962891 42.679688 C 37.661213 43.716703 39.242039 44.98263 40.419922 46 L 9.5800781 46 C 10.757961 44.98263 12.338787 43.716703 14.037109 42.679688 C 15.227869 41.952655 16 40.663219 16 39.238281 L 16 38.955078 z"/></svg>